# xmcd CD database file
#
# Track frame offsets:
#	150
#	14308
#	28400
#	42019
#	55749
#	69585
#	81136
#	93928
#	105870
#	118763
#	132529
#	144100
#	154190
#	166193
#	180423
#	195565
#	209336
#	224107
#	236718
#
# Disc length: 3324 seconds
#
# Revision: 3
# Processed by: cddbd v1.5.2PL0 Copyright (c) Steve Scherf et al.
# Submitted via: CDex 1.51
#
DISCID=050cfa13
DTITLE=Billie Holiday - Billy Holiday  [CD 04-10]
DYEAR=1900
DGENRE=Jazz
TTITLE0=I'll Get By
TTITLE1=Mean To Me
TTITLE2=Foolin' Myself
TTITLE3=Easy Living
TTITLE4=I'll Never Be The Same
TTITLE5=Me, Myself And I
TTITLE6=A Sailboat In The Moonlight
TTITLE7=Born To Love
TTITLE8=Without Your Love
TTITLE9=Getting Some Fun Out Of Life
TTITLE10=Who Wants Love ¿
TTITLE11=Trav'lin' All Alone
TTITLE12=He's Funny That Way
TTITLE13=Nice Work If You Can Get It
TTITLE14=Things Are Looking Up
TTITLE15=My Man
TTITLE16=Can't Help Lovin' Dat Man
TTITLE17=My First Impression Of You
TTITLE18=When You're Smiling
EXTD=Volume 4 of a 10-CD set.
EXTT0=
EXTT1=
EXTT2=
EXTT3=
EXTT4=
EXTT5=
EXTT6=
EXTT7=
EXTT8=
EXTT9=
EXTT10=
EXTT11=
EXTT12=
EXTT13=
EXTT14=
EXTT15=
EXTT16=
EXTT17=
EXTT18=
PLAYORDER=
